<?xml version="1.0" encoding="iso-8859-1"?>
<!-- Uploaded to: SVG Repo, www.svgrepo.com, Generator: SVG Repo Mixer Tools -->
<svg fill="#000000" height="800px" width="800px" version="1.1" id="Layer_1" xmlns="http://www.w3.org/2000/svg" xmlns:xlink="http://www.w3.org/1999/xlink" 
	 viewBox="0 0 512.086 512.086" xml:space="preserve">
<g transform="translate(-1)">
	<g>
		<g>
			<path d="M343.801,365.705c-10.129-6.018-23.219-2.686-29.237,7.443c-14.547,24.483-45.289,37.569-74.957,32.056
				c-11.584-2.153-22.719,5.493-24.872,17.076c-2.153,11.584,5.493,22.719,17.076,24.872c46.88,8.712,95.543-12.003,119.433-52.211
				C357.263,384.813,353.93,371.723,343.801,365.705z"/>
			<path d="M506.794,240.962L272.128,6.295c-8.331-8.331-21.839-8.331-30.17,0L7.291,240.962
				c-12.005,12.005-5.683,31.609,9.349,35.659C6.97,288.969,1.047,304.5,1.047,320.039c0,24.358,13.313,46.064,33.762,57.555
				c25.912,90.289,107.59,134.445,222.238,134.445s196.323-44.156,222.218-134.441c20.463-11.488,33.782-33.194,33.782-57.559
				c0-15.54-5.924-31.071-15.594-43.419C512.48,272.565,518.798,252.965,506.794,240.962z M257.043,51.55l183.155,183.155H73.888
				L257.043,51.55z M454.309,342.205c-6.997,2.374-12.267,8.2-13.93,15.399c-17.284,74.802-82.18,111.768-183.332,111.768
				c-101.15,0-166.051-36.967-183.354-111.773c-1.664-7.194-6.93-13.016-13.922-15.392c-9.566-3.25-16.058-12.08-16.058-22.169
				c0-10.012,7.847-21.667,16.493-25.101c4.027-1.6,7.472-4.388,9.876-7.993l6.376-9.564h73.772
				c-6.836,0.053-13.527,3.383-17.605,9.5c-6.536,9.803-3.886,23.048,5.917,29.584l64,42.667c9.803,6.536,23.048,3.886,29.584-5.917
				c6.536-9.803,3.886-23.049-5.917-29.584l-64-42.667c-3.663-2.442-7.807-3.6-11.902-3.583h213.47
				c-4.095-0.017-8.239,1.141-11.902,3.583l-64,42.667c-9.803,6.536-12.452,19.781-5.917,29.584
				c6.536,9.803,19.781,12.452,29.584,5.917l64-42.667c9.803-6.536,12.452-19.781,5.917-29.584
				c-4.078-6.117-10.768-9.447-17.605-9.5h73.78l6.376,9.564c2.404,3.606,5.848,6.394,9.876,7.993
				c8.646,3.434,16.493,15.089,16.493,25.101C470.38,330.128,463.889,338.954,454.309,342.205z"/>
		</g>
	</g>
</g>
</svg>