<?xml version="1.0" encoding="iso-8859-1"?>
<!-- Uploaded to: SVG Repo, www.svgrepo.com, Generator: SVG Repo Mixer Tools -->
<svg fill="#000000" height="800px" width="800px" version="1.1" id="Layer_1" xmlns="http://www.w3.org/2000/svg" xmlns:xlink="http://www.w3.org/1999/xlink" 
	 viewBox="0 0 512 512" xml:space="preserve">
<g>
	<g>
		<g>
			<path d="M255.991,340.907c-45.743,0-85.333,26.391-85.333,64c0,11.782,9.551,21.333,21.333,21.333s21.333-9.551,21.333-21.333
				c0-9.532,17.703-21.333,42.667-21.333s42.667,11.801,42.667,21.333c0,11.782,9.551,21.333,21.333,21.333
				s21.333-9.551,21.333-21.333C341.325,367.297,301.734,340.907,255.991,340.907z"/>
			<path d="M170.658,276.907c0,11.776,9.557,21.333,21.333,21.333s21.333-9.557,21.333-21.333l0,0c5.46,0,10.919-2.083,15.085-6.248
				c8.331-8.331,8.331-21.839,0-30.17l-42.667-42.667c-8.331-8.331-21.839-8.331-30.17,0c-8.331,8.331-8.331,21.839,0,30.17
				l28.953,28.953C176.434,259.976,170.658,267.761,170.658,276.907z"/>
			<path d="M326.24,197.822l-42.667,42.667c-8.331,8.331-8.331,21.839,0,30.17c4.166,4.166,9.625,6.248,15.085,6.248
				c0,11.776,9.557,21.333,21.333,21.333s21.333-9.557,21.333-21.333c0-9.146-5.776-16.931-13.868-19.962l28.953-28.953
				c8.331-8.331,8.331-21.839,0-30.17C348.079,189.491,334.571,189.491,326.24,197.822z"/>
			<path d="M461.144,242.258c-16.667-76.228-71.52-136.167-144.155-158.069l9.961-59.323C329.135,11.855,319.105,0,305.911,0
				h-90.773c-12.745,0-22.646,11.102-21.194,23.763l6.734,58.727c-75.255,20.354-132.691,81.342-149.843,159.774
				c-17.572,12.215-29.501,34.121-29.501,55.976c0,22.939,12.062,43.521,30.807,54.705C77.56,445.914,160.147,512,256,512
				c95.836,0,178.419-66.088,203.838-159.054c18.752-11.184,30.829-31.768,30.829-54.706
				C490.667,276.377,478.731,254.471,461.144,242.258z M280.697,42.667L259.275,170.24h-5.584l-5.314-46.297l-9.319-81.277H280.697z
				 M434.468,317.948c-6.936,2.444-12.125,8.288-13.73,15.465c-17.699,79.144-85.763,135.92-164.738,135.92
				c-78.993,0-147.06-56.773-164.76-135.92c-1.605-7.177-6.794-13.021-13.73-15.465C69.548,315.143,64,307.339,64,298.24
				c0-9.062,6.834-19.56,14.008-22.512c6.792-2.796,11.669-8.889,12.908-16.129c11.074-64.699,55.395-115.537,114.691-134.113
				l0.385,3.354l7.472,65.164c1.235,10.771,10.353,18.903,21.194,18.903h0.008h42.658h0.009c10.419,0,19.314-7.526,21.039-17.802
				l11.483-68.412l0,0c57.685,19.502,100.395,69.661,111.207,132.902c1.239,7.245,6.12,13.342,12.918,16.136
				C441.166,278.685,448,289.177,448,298.24C448,307.328,442.441,315.139,434.468,317.948z"/>
		</g>
	</g>
</g>
</svg>